<svg id="Слой_1" data-name="Слой 1" xmlns="http://www.w3.org/2000/svg" viewBox="0 0 1288.46 1049.53"><defs><style>.cls-1{fill:#ffed43;}</style></defs><path class="cls-1" d="M550.3,274.92h7.19a24.51,24.51,0,0,0,5.76.68,34.5,34.5,0,0,0,6.47.68c2.88.46,5.51.92,7.91,1.37a58.76,58.76,0,0,0,8.64,2c3.35.92,6.47,1.82,9.35,2.73l10.07,2.73q5,2,10.79,4.09,5,2.73,10.08,5.45c3.83,1.82,7.43,3.65,10.79,5.46q5.74,3.42,10.79,6.81,5.75,4.1,10.79,8.19,5,4.77,10.07,9.54,5,5.46,9.35,10.91L687,347.87q3.59,5.47,7.19,10.91t6.47,10.91a76.38,76.38,0,0,1,6.48,10.23,92.38,92.38,0,0,1,5,9.54,54.35,54.35,0,0,1,5,8.87,50.5,50.5,0,0,1,3.6,8.86c1.44,2.73,2.63,5.23,3.6,7.5q1.43,4.1,2.87,8.18c.47,2.28,1,4.55,1.44,6.82s1,4.55,1.44,6.82v6.14a24.44,24.44,0,0,1-.72,6.13,11.58,11.58,0,0,1-1.44,5.46,25.54,25.54,0,0,1-2.16,5.45,42.87,42.87,0,0,0-2.87,4.77,27.55,27.55,0,0,1-3.6,4.09,46.42,46.42,0,0,0-5,4.1q-2.88,2-5.75,4.09a52.63,52.63,0,0,1-7.2,3.41L687,487a120.58,120.58,0,0,1-13.67,6.14,124.06,124.06,0,0,1-11.51,4.77L650.3,502c-2.88.92-6,1.83-9.36,2.73a57.15,57.15,0,0,1-8.63,2.05,51.65,51.65,0,0,1-7.91.68,19,19,0,0,1-7.2,0,35.36,35.36,0,0,1-6.47-.68,28,28,0,0,1-5.76-2.05,52.72,52.72,0,0,0-5-2.73l-4.32-4.09a44.69,44.69,0,0,1-4.32-4.77L587,487.64q-2.16-3.39-4.32-6.81-2.88-4.77-5.75-9.55a63.76,63.76,0,0,0-6.48-8.86c-2.4-2.73-4.8-5.22-7.19-7.5a88.86,88.86,0,0,0-7.2-6.14,45,45,0,0,0-7.91-4.77,53.84,53.84,0,0,0-7.2-3.41,72.12,72.12,0,0,0-7.91-2.05,52.94,52.94,0,0,0-7.91-.68,56.93,56.93,0,0,0-8.63.68,72.25,72.25,0,0,0-7.92,2.05,49.47,49.47,0,0,0-5,2.73,46.82,46.82,0,0,0-5,2.73,45.24,45.24,0,0,0-5,4.09,46.8,46.8,0,0,0-4.31,4.77,42.85,42.85,0,0,0-2.88,4.77,15,15,0,0,0-2.88,5.46,26,26,0,0,0-2.16,5.45v5.46a24,24,0,0,0,.72,6.13,25,25,0,0,0,2.16,5.45,34.68,34.68,0,0,0,3.6,5.46,51.65,51.65,0,0,0,5.75,4.77,64.08,64.08,0,0,0,7.2,4.78q5,2,9.35,3.41a93.57,93.57,0,0,0,12.23,3.4q2.87.69,6.48,1.37a37.9,37.9,0,0,0,7.19.68,38,38,0,0,0,7.19.68,38.08,38.08,0,0,0,7.2.68h7.91a56.93,56.93,0,0,1,8.63.68h16.55a54.46,54.46,0,0,0,8.63-.68h17.27a54.56,54.56,0,0,0,8.63.68h9.35a55.91,55.91,0,0,1,8.64.69h8.63l8.63,1.36a55.89,55.89,0,0,1,8.64.68c2.87.46,5.75.92,8.63,1.36a57.43,57.43,0,0,0,8.63,2.05,66,66,0,0,0,7.92,2l8.63,2.72c2.39.92,5,2,7.91,3.41a53.84,53.84,0,0,1,7.2,3.41c2.39,1.37,4.78,2.73,7.19,4.09a67.34,67.34,0,0,1,7.19,4.78,79.28,79.28,0,0,1,6.48,5.45,40.93,40.93,0,0,1,6.47,6.14,78.38,78.38,0,0,1,5.76,6.13c1.91,2.73,3.6,5.23,5,7.5a76.32,76.32,0,0,1,5,8.18l4.32,8.19a36.85,36.85,0,0,1,3.59,7.5c1.44,2.72,2.63,5.23,3.6,7.5a61.38,61.38,0,0,1,3.6,8.18c1,2.28,1.91,4.77,2.88,7.5s1.91,5.23,2.87,7.5c1,2.73,1.91,5.45,2.88,8.18a56.94,56.94,0,0,0,2.16,7.5q.71,4.1,1.44,7.5a54,54,0,0,1,2.16,8.18q.71,3.42,1.44,7.5a44.53,44.53,0,0,1,.71,7.5,43.59,43.59,0,0,1,.72,7.5,43.59,43.59,0,0,1,.72,7.5v22.5l-1.44,6.82a37,37,0,0,1-.71,7.5q-.74,3.42-1.44,6.82T782,731.74a36.1,36.1,0,0,0-2.16,6.82c-1,2.27-1.92,4.54-2.88,6.81a37.11,37.11,0,0,1-2.16,6.82,26.05,26.05,0,0,0-3.59,6.14A9997.7,9997.7,0,0,0,764,770.6a72.51,72.51,0,0,0-4.31,6.14l-4.32,5.45a52.19,52.19,0,0,0-5,5.46,53,53,0,0,0-5,5.45l-5.76,5.46c-2.4,1.82-4.56,3.4-6.47,4.77a33.07,33.07,0,0,1-6.48,4.77q-3.6,2.73-6.47,4.77a44.91,44.91,0,0,1-7.92,4.78q-3.6,2-7.19,4.09-4.32,2-7.91,3.41l-8.64,4.09a55.41,55.41,0,0,1-9.35,3.4q-4.32,1.38-9.35,3.41-4.32,1.38-9.35,2.73l-10.07,2.73a109,109,0,0,1-10.8,2A98.55,98.55,0,0,1,628,845.6a98.55,98.55,0,0,1-11.51,2L605,849l-13,1.36a124.69,124.69,0,0,1-12.95.69,127.5,127.5,0,0,1-13,.68h-28c-6.24,0-12.48-.24-18.71-.68l-17.26-1.37c-5.29-.46-10.79-1.14-16.55-2q-7.2-.67-15.11-2-7.2-1.35-14.39-2.73-7.2-2-13.66-3.41l-12.95-4.09-11.51-4.09a120.91,120.91,0,0,1-11.52-4.77,98.6,98.6,0,0,1-10.07-4.77c-3.36-1.81-6.47-3.64-9.35-5.46l-8.63-5.45c-2.88-1.81-5.52-3.64-7.91-5.46-2.88-2.27-5.51-4.31-7.92-6.13a84.5,84.5,0,0,0-6.47-6.82,75.16,75.16,0,0,1-5.76-6.14l-5.75-6.82a63,63,0,0,0-5-6.81c-1.44-2.27-2.88-4.78-4.32-7.5a46.22,46.22,0,0,0-3.59-6.82,47.27,47.27,0,0,0-3.6-6.82c-1-2.73-1.91-5.22-2.88-7.5a57.38,57.38,0,0,0-2.16-7.5,36.79,36.79,0,0,0-2.15-6.82q-.72-3.41-1.44-7.5l-1.44-6.82a32.84,32.84,0,0,0-.72-6.81,33.55,33.55,0,0,1-.72-6.82v-6.82a33.55,33.55,0,0,1-.72-6.82V682a23.93,23.93,0,0,0,.72-6.13v-5.46a23136.76,23136.76,0,0,0,1.44-10.91,18.93,18.93,0,0,0,.72-4.77,14.33,14.33,0,0,0,.72-4.77l1.44-4.09a1240.33,1240.33,0,0,1,1.43-6.82,99.34,99.34,0,0,1,3.6-10.91,52.87,52.87,0,0,1,4.32-10.91q2.16-4.1,5-8.86a29,29,0,0,1,5.76-7.5A36.88,36.88,0,0,1,346.7,594a33.78,33.78,0,0,1,6.48-4.77,51.37,51.37,0,0,1,7.19-3.41,26.92,26.92,0,0,1,7.2-2.05h7.19a43.51,43.51,0,0,1,7.2,2.05l5.75,1.36a40.09,40.09,0,0,1,7.91,2l8.64,1.36a75.94,75.94,0,0,1,10.79,2q5,.68,10.79,2a103.33,103.33,0,0,1,11.51,2l11.51,2.72a53.56,53.56,0,0,1,11.51,2.73c3.83.92,7.67,1.82,11.51,2.73A89.14,89.14,0,0,1,482,608.33c3.35,1.36,6.48,2.72,9.36,4.09s5.5,2.73,7.91,4.09a33.71,33.71,0,0,1,6.47,4.77,12.71,12.71,0,0,1,4.32,5.46,23.47,23.47,0,0,1,2.16,6.13,112.7,112.7,0,0,0,2.16,11.59,30.4,30.4,0,0,0,4.31,8.87,26,26,0,0,0,5,6.82,21.76,21.76,0,0,0,7.19,4.77,68.77,68.77,0,0,0,8.64,3.41l10.07,1.36a115.28,115.28,0,0,0,12.23.68,38.13,38.13,0,0,0,7.19-.68q2.87-.68,6.48-1.36a51,51,0,0,0,6.47-2.05,16.4,16.4,0,0,0,5.76-2.73l5.75-2.72c1.91-1.37,3.84-2.73,5.76-4.09l4.31-4.09,4.32-4.09a18.37,18.37,0,0,1,3.6-4.78,26.63,26.63,0,0,0,2.16-5.45,14.93,14.93,0,0,0,2.15-4.78,21.31,21.31,0,0,1,.72-5.45v-4.77L615,617.87a37.86,37.86,0,0,0-2.15-4.77c-1.44-1.81-2.65-3.41-3.6-4.77a47.62,47.62,0,0,1-5-4.09,74.49,74.49,0,0,1-6.47-4.1,41.62,41.62,0,0,0-7.91-3.4,55.86,55.86,0,0,0-9.36-3.41,75.94,75.94,0,0,0-10.79-2.05l-7.19-1.36a51.67,51.67,0,0,0-7.92-.68L546,587.87h-7.91a55.89,55.89,0,0,0-8.64-.68H520.8a54.56,54.56,0,0,1-8.63-.68H485.55a69,69,0,0,1-9.35-.68h-8.63a55.89,55.89,0,0,1-8.64-.68,59.32,59.32,0,0,1-9.35-.69,57.13,57.13,0,0,0-8.63-.68l-8.64-1.36-8.63-1.37a38,38,0,0,1-7.91-2,57.56,57.56,0,0,1-8.64-2l-7.19-2.72c-2.88-.91-5.52-1.81-7.91-2.73a51.54,51.54,0,0,1-7.2-3.41L377.64,564a73.27,73.27,0,0,1-6.48-4.09,75,75,0,0,1-6.47-5.46L358.93,549a62.34,62.34,0,0,1-5-6.82,62.47,62.47,0,0,1-5-6.82q-2.87-4.08-5-7.5c-1.44-3.17-2.63-6.13-3.6-8.86a78.39,78.39,0,0,1-3.6-9.55q-1.42-4.75-2.87-10.22a87.65,87.65,0,0,1-2.16-10.91v-.69a2.64,2.64,0,0,1-.72-2,10.73,10.73,0,0,0-.72-3.41,12.25,12.25,0,0,0-.72-4.09,21.31,21.31,0,0,0-.72-5.45,24.12,24.12,0,0,0-.72-6.14,43.59,43.59,0,0,0-.72-7.5V433.78c.48-3.17,1-6.36,1.44-9.54A35.28,35.28,0,0,1,330.16,414q.72-4.75,1.44-10.23,1.44-4.75,2.87-10.22,2.16-5.46,4.32-10.23l4.32-10.91q2.88-4.77,5.75-10.23a113.29,113.29,0,0,1,6.48-9.54,84.44,84.44,0,0,1,7.91-10.23q4.32-4.77,9.35-9.55c2.88-2.72,6-5.45,9.36-8.18q5-3.4,10.79-7.5,5-3.4,10.07-6.13,5.74-3.4,11.51-6.14,5-2.71,10.79-5.46a122.94,122.94,0,0,0,11.51-4.77q5.75-2,10.79-3.41l11.51-4.09q5.76-1.35,10.79-2.73,5.76-1.35,10.79-2a75.28,75.28,0,0,1,10.8-2.05,57.18,57.18,0,0,1,9.35-2,70.6,70.6,0,0,1,9.35-.68l8.63-1.37a50.44,50.44,0,0,0,7.92-.68,27.88,27.88,0,0,0,6.47-.68H550.3Z" transform="translate(-315.77 -15.89)"/><path class="cls-1" d="M1135.9,489c.47,2.73.95,5.45,1.43,8.18.47,2.28,1,4.77,1.44,7.5.48,2.28,1,4.77,1.44,7.5.47,2.28,1,4.77,1.44,7.5.47,2.28,1,4.55,1.44,6.82s1,4.77,1.44,7.5a33.7,33.7,0,0,1,.72,6.82q.7,3.42,1.44,6.82a44.51,44.51,0,0,1,.72,7.5c.47,2.27.95,4.55,1.43,6.81a43.67,43.67,0,0,1,.73,7.5,37.92,37.92,0,0,1,.71,7.5q.72,3.42,1.44,7.5a43.41,43.41,0,0,0,.72,7.5,36.3,36.3,0,0,0,.72,7.5v8.19a52.11,52.11,0,0,1,.72,8.86,48.1,48.1,0,0,1,.72,8.18,62.57,62.57,0,0,0,.72,9.55v8.86a67.31,67.31,0,0,0,.72,10.23V697a107.59,107.59,0,0,1,.72,12.28,113.35,113.35,0,0,1-.72,13V740.6c0,5.45-.25,10.91-.72,16.36a139,139,0,0,1-.72,14.32,113.52,113.52,0,0,1-.72,13l-1.44,10.91a61.06,61.06,0,0,1-.72,8.86c-.48,2.28-1,4.77-1.44,7.5a22.1,22.1,0,0,1-.71,5.45c-.49,1.83-1,3.41-1.45,4.78a5.84,5.84,0,0,1-.71,2.72v2l-.72.68a1.92,1.92,0,0,1-.72,1.36,15.17,15.17,0,0,1-2.16,4.78l-4.32,5.45-7.19,5.46a34.22,34.22,0,0,1-9.36,4.09,60,60,0,0,1-12.23,1.36,95.78,95.78,0,0,1-15.82-2.73l-11.51-4.09q-6.48-2-12.23-4.09t-12.23-4.09l-11.51-4.09-10.08-4.09a56.31,56.31,0,0,1-9.35-3.41l-7.19-2.73a18,18,0,0,1-4.32-2H1015a2.14,2.14,0,0,0-1.44-.68,8.93,8.93,0,0,1-3.59-2,18.94,18.94,0,0,1-5-3.41,26.38,26.38,0,0,1-4.31-6.82,25.81,25.81,0,0,1-3.6-10.22,65.12,65.12,0,0,1-1.44-13.64,113.59,113.59,0,0,1,1.44-18.41,105.16,105.16,0,0,1,2.16-12.27q.7-5.46,1.44-10.91t1.43-10.91q.72-4.75,1.44-10.23c.48-3.17,1-6.13,1.44-8.86a51.31,51.31,0,0,1,.72-8.87,47.18,47.18,0,0,1,.72-8.18,43.59,43.59,0,0,1,.72-7.5v-6.13a30.71,30.71,0,0,0,.72-6.14v-15c-.48-4.09-1-8.18-1.44-12.27a126.54,126.54,0,0,0-.72-13,88.58,88.58,0,0,1-.72-11.59c-.48-2.72-1-5.68-1.44-8.86v-2.73Q938.06,630.15,905,640.37v14.32a78.49,78.49,0,0,1,.72,10.23q.72,5.46,1.44,11.59a107.3,107.3,0,0,0,2.16,12.27,101.22,101.22,0,0,0,2.16,13q2.16,6.82,4.32,13a93.3,93.3,0,0,0,3.59,10.91q2.16,5.46,4.32,10.23c1,3.18,1.91,6.37,2.88,9.54q1.43,4.1,2.87,8.87a19.1,19.1,0,0,1,1.44,7.5,32.93,32.93,0,0,1,.72,6.82c-.48,2.27-1,4.32-1.44,6.13a35.05,35.05,0,0,1-3.59,5.46,30.27,30.27,0,0,1-5.76,4.09q-3.6,2-7.19,4.09l-10.07,4.09q-5.78,2.73-10.79,4.77-6.48,2.73-12.23,4.77c-4.32,1.83-8.4,3.41-12.24,4.78a95.78,95.78,0,0,1-12.22,4.77A90,90,0,0,1,846,814.92c-2.87,1.36-5.52,2.5-7.91,3.41a30.08,30.08,0,0,0-5.76,2,5.8,5.8,0,0,0-2.15.69,3.09,3.09,0,0,1-2.16.68,25.24,25.24,0,0,1-5.76.68,27.16,27.16,0,0,1-8.63,0,54.21,54.21,0,0,1-9.35-2,30,30,0,0,1-9.36-6.13,101.6,101.6,0,0,1-7.91-11.6,7.19,7.19,0,0,1-.72-3.4,25.94,25.94,0,0,1-1.44-3.41l-1.44-4.09c-.48-1.81-1-3.41-1.43-4.78q-.74-2.72-1.44-5.45t-1.44-5.46a24.55,24.55,0,0,0-.72-6.13c-.48-2.27-1-4.54-1.44-6.82s-1-4.54-1.44-6.82a44.61,44.61,0,0,0-.72-7.5,36.3,36.3,0,0,1-.72-7.5l-1.44-8.18a47.1,47.1,0,0,0-.72-8.18,50.34,50.34,0,0,0-.72-8.87,50.3,50.3,0,0,0-.72-8.86v-9.54a64,64,0,0,0-.71-9.55v-30a78.17,78.17,0,0,0,.71-10.23,85.3,85.3,0,0,1,.72-10.91,80.26,80.26,0,0,1,.72-10.22,83.29,83.29,0,0,1,.72-10.91L774,604.92c.47-3.63,1-7.27,1.44-10.91s1-7.27,1.44-10.91,1-7.26,1.44-10.91q1.42-6.13,2.16-11.59,1.43-5.45,2.87-10.91,1.44-6.13,2.88-13c1-4.09,1.91-8.19,2.88-12.28a83.45,83.45,0,0,1,3.6-11.59c1-4.09,1.91-7.94,2.87-11.59s1.92-7.26,2.88-10.91c1-3.17,1.91-6.58,2.88-10.22a78,78,0,0,1,3.6-9.55l2.87-9.55,2.88-8.18c1-2.72,1.91-5.67,2.88-8.86,1-2.27,1.91-4.77,2.88-7.5q1.42-3.4,2.88-7.5,1.42-3.4,2.87-6.82c1-2.27,1.91-4.54,2.88-6.82,1-1.81,1.91-3.63,2.88-5.45a49.45,49.45,0,0,0,2.16-6.14A45.1,45.1,0,0,0,833,399a36.09,36.09,0,0,0,2.16-4.77,44,44,0,0,1,2.88-4.78c1.44-2.72,3.11-5.67,5-8.86q2.14-4.1,4.31-8.86a54.67,54.67,0,0,0,5-8.87,74.28,74.28,0,0,0,5-8.18c1.91-2.73,3.84-5.45,5.76-8.18q2.87-3.4,5.75-7.5a87.48,87.48,0,0,1,7.2-6.14A48.23,48.23,0,0,1,892,322q3.59-1.35,7.91-3.41t9.35-4.09a100.65,100.65,0,0,0,10.07-4.77,121.83,121.83,0,0,0,11.51-4.77c4.32-1.81,8.39-3.41,12.23-4.77,3.84-1.81,7.67-3.41,11.52-4.78,3.83-1.81,7.42-3.41,10.78-4.77a101.85,101.85,0,0,0,10.08-4.77,69.25,69.25,0,0,0,8.63-3.41l7.19-2.73a18.35,18.35,0,0,0,4.32-2,2.15,2.15,0,0,0,1.44-.69,17.73,17.73,0,0,0,4.31-2l11.52-2.73a16.75,16.75,0,0,1,11.51,0,28.11,28.11,0,0,1,13.67,8.18,23.73,23.73,0,0,1,5.75,6.14h.72a1.88,1.88,0,0,0,.72,1.36,7.27,7.27,0,0,0,1.44,2.05,36.28,36.28,0,0,1,2.16,3.41,22.92,22.92,0,0,1,2.87,3.41,44.42,44.42,0,0,1,2.88,4.77,18.54,18.54,0,0,1,3.6,4.77c1.44,2.28,2.63,4.33,3.6,6.14q2.15,3.42,4.31,6.82l4.32,6.81a75.33,75.33,0,0,1,5,8.19,76.32,76.32,0,0,0,5,8.18q2.16,4.77,4.31,8.86a92.63,92.63,0,0,1,5,9.55c1.91,3.64,3.6,7.05,5,10.23a116.36,116.36,0,0,1,5,10.9,117.58,117.58,0,0,1,5,10.91,87.89,87.89,0,0,1,5,11.59c1.44,3.65,3.11,7.5,5,11.59l4.32,12.28q2.16,6.14,4.32,12.95c.95,4.09,2.15,8.42,3.59,13s2.63,8.86,3.6,12.95q1.42,6.82,2.88,13.64A49.44,49.44,0,0,0,1135.9,489Zm-144.61,47a2.78,2.78,0,0,0-.71-2,19.12,19.12,0,0,0-.73-4.77,60.19,60.19,0,0,0-2.16-7.5,79.59,79.59,0,0,0-2.15-8.87c-1-3.63-1.92-7.26-2.88-10.91-1-4.09-1.92-8.18-2.88-12.27a115.93,115.93,0,0,1-3.59-12.27q-2.16-6.14-4.32-13c-1.44-4.53-2.88-8.86-4.32-12.95s-2.87-7.95-4.31-11.59a75.22,75.22,0,0,1-3.6-9.55c-1-2.27-1.92-4.54-2.88-6.81a5,5,0,0,1-.72-2.05c-.48-.45-.72,0-.72,1.36a8.47,8.47,0,0,1-2.15,3.41,44.57,44.57,0,0,0-2.16,6.14,59.43,59.43,0,0,0-3.6,8.18l-4.32,9.55a64.06,64.06,0,0,0-3.59,10.22c-1.44,3.65-2.88,7.5-4.32,11.59-1.44,3.65-2.88,7.5-4.32,11.6-1,3.64-2.15,7.49-3.59,11.59a126.78,126.78,0,0,0-3.6,14.31q-2.16,6.82-3.6,13.64-2.16,6.14-3.59,11.59t-2.88,10.23c-.49,2.73-1,5.45-1.44,8.18-.48,1.36-1,3-1.44,4.77a5.19,5.19,0,0,1-.72,2Q964,543.56,991.29,536.06Z" transform="translate(-315.77 -15.89)"/><path class="cls-1" d="M1376.9,495.83v-2.05c.47-1.36.95-2.73,1.44-4.09q.71-2.71,1.43-5.45a50.18,50.18,0,0,1,2.16-8.18,65.91,65.91,0,0,1,2.16-9.55c1-3.63,1.91-7.5,2.88-11.59q1.42-6.81,2.88-13.64,2.14-8.17,4.31-16.36,2.16-9.54,4.32-18.41,1.43-7.5,3.6-15a140.78,140.78,0,0,1,3.59-13.64c1-4.54,1.91-9.08,2.88-13.63q1.44-5.46,3.6-11.59,1.42-5.46,2.88-11.59,1.42-4.77,2.87-9.55c1-3.18,1.91-6.14,2.88-8.86a33.65,33.65,0,0,1,2.16-7.5q.7-3.4,1.44-6.82a38.91,38.91,0,0,0,2.16-4.77,12.29,12.29,0,0,1,.71-4.1,2.64,2.64,0,0,0,.72-2l.72-.68a7.24,7.24,0,0,1,.72-3.41c1.91-3.64,4.56-5.9,7.92-6.82a54.25,54.25,0,0,1,18.7-3.41h45.32a118.29,118.29,0,0,1,12.23-.68h28.78a25.31,25.31,0,0,0,5.76-.68h1.43a6.74,6.74,0,0,0,2.88.68c2.4,1.36,4.55,2.73,6.48,4.09a30.87,30.87,0,0,1,7.91,9.54,71.79,71.79,0,0,1,6.48,17.73,29.72,29.72,0,0,1,1.44,3.41,12.23,12.23,0,0,0,.71,4.09q.72,2.06,1.44,4.77a19,19,0,0,0,.72,4.78c.47,1.82,1,3.64,1.44,5.45s1,3.65,1.44,5.46c.47,2.28,1,4.32,1.44,6.13q.71,3.42,1.44,6.14.7,3.42,1.44,6.82c.47,2.28,1,4.77,1.43,7.5.48,2.28,1,4.77,1.44,7.5.48,2.28,1,4.77,1.44,7.5s1,5.45,1.44,8.18,1,5.45,1.44,8.18,1,5.46,1.44,8.18q.7,4.78,1.44,9.55c.47,2.73.95,5.69,1.44,8.86a62.57,62.57,0,0,0,.72,9.55c.47,3.18,1,6.37,1.44,9.54s1,6.37,1.43,9.55a68.62,68.62,0,0,0,.72,10.23,78.47,78.47,0,0,1,.72,10.22,78.73,78.73,0,0,1,.72,10.23,85.18,85.18,0,0,1,.72,10.91,85.18,85.18,0,0,1,.72,10.91,85.06,85.06,0,0,1,.72,10.91V564a101.87,101.87,0,0,1-.72,11.59v11.59c-.48,4.55-1,9.1-1.44,13.64a129.78,129.78,0,0,0-.72,13.63q-.72,6.15-1.44,13-1.44,6.83-2.15,13-.73,6.82-1.44,13a101.36,101.36,0,0,0-2.16,12.95,105,105,0,0,0-2.16,12.28,105.16,105.16,0,0,0-2.16,12.27q-1.44,5.46-2.88,11.59-.72,5.46-2.15,11.59-1.45,5.46-2.88,10.91a89.14,89.14,0,0,1-2.16,10.91c-1,3.18-1.92,6.59-2.88,10.22q-1.44,4.79-2.88,10.23a69.41,69.41,0,0,1-2.15,9.55c-1,2.73-1.93,5.69-2.88,8.86-1,2.73-1.92,5.46-2.88,8.18a51.61,51.61,0,0,1-2.16,8.19,57.91,57.91,0,0,0-2.15,7.5c-1,2.72-1.93,5.23-2.88,7.49a48.89,48.89,0,0,1-2.16,6.14c-.48,1.82-1,3.87-1.44,6.14a34.17,34.17,0,0,0-2.16,4.77q-.72,2.73-1.44,4.77l-1.44,4.09a26.24,26.24,0,0,1-1.43,3.41c-.49.92-1,1.82-1.44,2.73a5.19,5.19,0,0,1-.72,2v.68c0,.46-.25.68-.72.68a5.11,5.11,0,0,1-.72,2,28.11,28.11,0,0,1-3.6,4.1,19.65,19.65,0,0,1-6.47,4.09,29.86,29.86,0,0,1-10.8.68,84.25,84.25,0,0,1-15.1-5.46l-8.64-4.09a59.43,59.43,0,0,0-9.35-4.77q-5-3.4-10.07-6.14-5.76-3.4-10.79-6.13-5.76-3.41-10.79-6.82a78.45,78.45,0,0,1-10.79-6.14,82.45,82.45,0,0,0-10.79-6.13l-8.64-5.46c-2.87-1.81-5.52-3.41-7.91-4.77l-5.76-4.09a18,18,0,0,1-4.31-2,2.23,2.23,0,0,0-1.44-.68c-.48-.45-1-.9-1.44-1.36l-2.88-4.09a34.74,34.74,0,0,1-2.16-7.5,27.81,27.81,0,0,1-.71-10.91,56.48,56.48,0,0,1,3.59-15c.47-1.81,1-3.86,1.44-6.14,1-1.81,1.91-3.86,2.88-6.13a36.1,36.1,0,0,1,2.16-6.82q1.43-3.4,2.87-6.82c1-2.27,1.91-4.77,2.88-7.5,1.44-2.73,2.63-5.22,3.6-7.5q1.42-4.09,2.88-8.18t3.59-8.87c1-2.72,1.91-5.45,2.88-8.18a50.05,50.05,0,0,1,3.6-8.86q1.42-4.77,2.88-8.87c1-3.17,1.91-6.13,2.87-8.86,1-3.17,1.92-6.36,2.88-9.54s1.91-6.14,2.88-8.87a65.78,65.78,0,0,1,2.16-9.54,75.39,75.39,0,0,1,2.15-8.87l1.44-9.54c.48-2.73,1-5.68,1.44-8.87a48.1,48.1,0,0,0,.72-8.18,63.93,63.93,0,0,1,.72-9.54V542.87a88.8,88.8,0,0,0-.72-11.59V520.37a99.48,99.48,0,0,1-.72-11.59,83.06,83.06,0,0,1-.72-10.91,78.26,78.26,0,0,1-.72-10.23,78.14,78.14,0,0,1-.71-10.22,58.47,58.47,0,0,1-.73-8.87,59.39,59.39,0,0,1-.71-8.86,35.63,35.63,0,0,1-.72-7.5,29.22,29.22,0,0,1-.72-6.13,20.9,20.9,0,0,1-.72-5.46,12.5,12.5,0,0,0-.72-4.09V433.1a1.92,1.92,0,0,1-.72,1.36,14.65,14.65,0,0,1-.72,4.78,37.11,37.11,0,0,1-2.16,6.82c-.48,2.72-1,5.68-1.44,8.86q-1.44,5.46-2.87,10.91a101.36,101.36,0,0,0-2.16,12.95c-1,4.55-1.92,9.1-2.88,13.64q-1.46,7.51-2.88,15.68-1.46,8.86-2.16,17.73-1.44,8.17-2.16,15.68a131.82,131.82,0,0,0-2.15,13.64q-.74,6.14-1.44,11.59c-.49,3.18-1,6.37-1.44,9.54a48,48,0,0,1-.72,8.18,37.11,37.11,0,0,1-2.16,6.82,14.83,14.83,0,0,1-2.16,4.78,17.11,17.11,0,0,1-2.15,4.08,13.31,13.31,0,0,1-7.92,4.1c-1.44.45-3.12.91-5,1.36q-5.77.69-12.23,1.36c-4.32,0-8.89.24-13.67.69q-5.78.68-12.23,1.36a81.08,81.08,0,0,0-10.79.68,38.92,38.92,0,0,0-7.2.68h-5c-2.41-.45-4.08-1.36-5-2.72a23.63,23.63,0,0,1-6.47-7.51,100.62,100.62,0,0,1-4.32-16.36,32.19,32.19,0,0,1-.72-6.82c-.48-2.72-1-5.67-1.44-8.86a63.77,63.77,0,0,1-.72-9.55c-.48-4.09-1-7.94-1.44-11.59a99.48,99.48,0,0,1-.72-11.59q-.72-6.14-1.44-13a105.18,105.18,0,0,1-.72-12.27q-.72-5.46-1.43-11.6a102,102,0,0,0-.72-11.59,62.44,62.44,0,0,1-.72-9.54,58.39,58.39,0,0,1-.72-8.87,24.55,24.55,0,0,0-.72-6.13v-6.14l-.72.68V459c-.48.92-1,1.82-1.44,2.73a7.24,7.24,0,0,0-.72,3.41c-.48,1.82-1,3.4-1.44,4.77a23.18,23.18,0,0,0-2.16,6.14q-.72,2.73-1.43,6.13-.73,4.1-1.44,7.5a49.7,49.7,0,0,0-2.16,8.18q-.74,4.78-1.44,9.55a65.78,65.78,0,0,0-2.16,9.54c-.48,3.19-1,6.6-1.44,10.23l-1.44,10.91a99.75,99.75,0,0,0-.72,11.59,105.18,105.18,0,0,0-.72,12.27,111.53,111.53,0,0,0-.72,13v13a129.69,129.69,0,0,0,.72,13.64,129.69,129.69,0,0,0,.72,13.64q.72,6.83,1.44,14.31c.47,3.19,1,6.38,1.44,9.55a64.84,64.84,0,0,1,2.16,10.23,91.45,91.45,0,0,1,2.16,10.91q1.43,5.46,2.87,10.9,1.44,6.15,2.88,11.6c1.44,4.09,2.63,8,3.6,11.59,1,4.09,1.91,8,2.88,11.59a96.52,96.52,0,0,1,3.59,10.91l2.88,10.91a79.52,79.52,0,0,1,3.6,9.54c1,2.73,1.91,5.69,2.88,8.86a56.08,56.08,0,0,0,2.16,7.5,22.93,22.93,0,0,0,2.15,6.14q.72,2.73,1.44,4.77a28,28,0,0,1,1.44,3.41v.69a2.71,2.71,0,0,1,.72,2,12.5,12.5,0,0,1,.72,4.09,16.67,16.67,0,0,1,0,6.82A20.47,20.47,0,0,1,1333,789a21.72,21.72,0,0,1-6.47,8.18,108.56,108.56,0,0,1-12.23,7.5l-8.63,4.09q-5.78,2.06-10.8,4.09c-3.84,1.83-7.44,3.41-10.79,4.78a124.54,124.54,0,0,0-11.51,4.77q-5.76,2-12.23,4.09c-3.36,1.36-7,3-10.79,4.77q-5,2-10.79,4.09-4.32,1.38-9.35,3.41c-2.41.92-5,1.82-7.92,2.73l-5.75,2.73-4.32,1.36a2.14,2.14,0,0,0-1.44.68h-2.87q-3.61.69-6.48,1.37a30.54,30.54,0,0,1-9.35-1.37,19.71,19.71,0,0,1-9.35-4.77,28.45,28.45,0,0,1-7.92-10.23,19182832799549.05,19182832799549.05,0,0,1-2.88-6.82q-.71-2-1.43-4.77a14.68,14.68,0,0,1-2.16-4.77,33.66,33.66,0,0,0-2.16-4.77,22.84,22.84,0,0,0-2.16-6.14,44.57,44.57,0,0,0-2.16-6.14,36.46,36.46,0,0,0-2.15-6.81,37.6,37.6,0,0,0-2.16-6.82,58.52,58.52,0,0,0-2.16-7.5,33.65,33.65,0,0,0-2.16-7.5,49.18,49.18,0,0,0-2.16-8.18c-.47-2.73-1-5.68-1.44-8.87a49.3,49.3,0,0,1-2.15-8.86,48.37,48.37,0,0,1-2.16-8.87l-1.44-9.54a65.91,65.91,0,0,0-2.16-9.55c-.47-3.17-1-6.58-1.44-10.22a76.78,76.78,0,0,0-.72-10.23c-.47-3.18-1-6.58-1.44-10.23a67.5,67.5,0,0,0-.72-10.23,81.81,81.81,0,0,0-.72-10.91v-33.4a81.59,81.59,0,0,0,.72-10.91,97.46,97.46,0,0,0,.72-11.59q.74-5.46,1.44-11.59c.49-3.64,1.2-7.5,2.16-11.6q1.46-8.85,2.88-17.72l2.88-16.37c1.43-5,2.64-10,3.59-15a129.14,129.14,0,0,1,3.6-14.32c1-4.53,1.92-8.86,2.88-12.95a84.38,84.38,0,0,1,3.59-11.59q1.45-5.44,2.88-10.91c1-3.17,1.92-6.58,2.88-10.23,1-2.72,1.92-5.45,2.88-8.18s1.92-5.45,2.87-8.18q1.46-3.4,2.88-6.82a24.91,24.91,0,0,1,2.16-5.45,26.36,26.36,0,0,0,2.16-5.46,16.19,16.19,0,0,1,2.16-4.09,27.59,27.59,0,0,0,1.44-3.41,7.85,7.85,0,0,0,1.43-2,5,5,0,0,0,.72-2.05l.72-.68c.48-.45.48-.68,0-.68a8.25,8.25,0,0,1-2.15,1.36,53.43,53.43,0,0,0-6.48,2.05l-8.63,1.36a28.53,28.53,0,0,1-8.64-1.36q-5-1.37-7.19-4.78a37.92,37.92,0,0,1-4.32-10.91q-.7-6.8-1.43-13.63l-1.44-12.27-1.44-10.91a48.18,48.18,0,0,1-.72-8.18,21.78,21.78,0,0,1-.72-5.46,5,5,0,0,0-.72-2v-2.05a14.63,14.63,0,0,1,.72-4.77,20.54,20.54,0,0,1,2.88-7.5,30.27,30.27,0,0,1,7.91-7.5,73.22,73.22,0,0,1,14.39-7.5l8.63-2.73a68.05,68.05,0,0,0,8.63-3.41l8.64-2.73a66.29,66.29,0,0,0,8.63-3.41,65.73,65.73,0,0,0,8.63-3.41l8.64-2.72a66.59,66.59,0,0,1,8.63-3.41,70.2,70.2,0,0,1,8.63-3.41,68.05,68.05,0,0,0,8.63-3.41,65.85,65.85,0,0,0,8.64-3.41,66.29,66.29,0,0,0,8.63-3.41c2.39-.9,5-2,7.91-3.41a55,55,0,0,0,9.36-3.41q5-2,9.35-4.09,5-2,9.35-3.41a56.3,56.3,0,0,1,9.35-3.4l8.64-2.73a22.08,22.08,0,0,1,7.91-1.37,39.69,39.69,0,0,1,7.19-.68,15,15,0,0,1,6.48,1.37,16.6,16.6,0,0,1,5.75,2.72,28.87,28.87,0,0,1,4.32,5.46c1,2.28,1.91,4.55,2.88,6.82a14.12,14.12,0,0,0,.72,4.77c.47,2.28,1,4.32,1.44,6.14a43.51,43.51,0,0,0,.71,7.5l1.44,8.18c.48,2.72,1,5.69,1.44,8.86s1,6.6,1.44,10.23c.47,3.18,1,6.59,1.44,10.22s1,7.5,1.44,11.6c.47,3.64,1,7.27,1.44,10.91q.71,6.13,1.44,12.27.71,5.46,1.44,11.59t1.43,11.59a88.58,88.58,0,0,0,.72,11.59q.72,6.13,1.44,11.59t1.44,10.91a80.28,80.28,0,0,1,.72,10.23c.47,3.18,1,6.37,1.44,9.54a61.19,61.19,0,0,1,.72,8.87,48,48,0,0,1,.72,8.18,30.79,30.79,0,0,1,.72,6.14,21.77,21.77,0,0,1,.72,5.45,12,12,0,0,0,.72,4.09v3.41C1376.65,497,1376.9,496.74,1376.9,495.83Z" transform="translate(-315.77 -15.89)"/><path class="cls-1" d="M1046.51,291.82c-4.51-10.81-14.37-19.71-21.7-28.95a325.54,325.54,0,0,1-24-34.61,283.41,283.41,0,0,1-17.36-32.69c-1.4-3.2-2.59-6.48-3.75-9.76,20.42-11.38,42.84-24.88,53-45.91,20.61-42.53-1.29-111.35-59.46-109.76-11,.3-22.27,4.46-31.09,10.59a54.58,54.58,0,0,0-9.57,8.37,57.4,57.4,0,0,0-13-16.69c-20.5-17.37-54.31-20-79.77-12.74C817.71,26,799.32,40.91,787.56,59.56,779,73.19,771.89,95.24,776,112.79a69,69,0,0,0-25.06,7c-21.34,10.59-37.1,32.58-41.32,54.85-4.45,23.49,3.18,49.13,25.39,62.39,12,7.18,26.6,8.76,40.41,6.76,10.16-1.48,23.31-5.11,30.75-12.79,2.53,4.19,5.3,8.23,8.09,12.26,5.13,7.39,10.5,14.9,14.78,22.78a257.29,257.29,0,0,1,18.39,41.49,206,206,0,0,1,5.42,20.53c1.84,8.4,2,18.78,7.5,25.79,5.68,7.22,16.31,6.21,19.7-2.44,3.47-8.88,0-19.61-2.19-28.57a150.75,150.75,0,0,0-7.53-22.46,328.54,328.54,0,0,0-23.25-45c-5.55-9-12.72-17.37-19.75-25.35-5.64-6.41-12.8-13.74-21.8-15.45l-.36-.1c-18.93-3.8-37.15,13.08-56.07,2.27-15.46-8.84-17.68-27.71-13-42.8a57.81,57.81,0,0,1,30-34.61c19-9.19,42.35-3.21,61.55,2.15,12.07,3.36,16.11-13.16,5.07-17.42-11.38-4.38-23-8.24-34.59-10.2.35-5.93.17-11.95,1.46-17.81a71.5,71.5,0,0,1,9.66-23.11c7.92-12.51,20-23.15,34.67-28.12,16.94-5.74,42.29-6.08,56.94,5.32,5.31,4.12,8.7,10.21,11,16.23,2.15,5.54,4,13.3,8.9,17.32a10.15,10.15,0,0,0,2.74,1.59c4.06,1.85,9.72.72,11.77-4.63C940.57,67,958,53.9,972.55,52.73c17.59-1.42,34,11.78,41,26.06,8.45,17.32,5.45,41.13-6.26,56.46-10.23,13.4-26.94,22.11-42,30C949,173.73,925,175,909.38,187.28c-5,3.9-2,11.89,3.71,13.32,13.3,3.34,29.91-.54,42.74-4.64,1.14-.37,2.27-.77,3.4-1.16.16.95.34,1.9.53,2.84,2.75,13.62,8.93,26.8,15.68,39a305.49,305.49,0,0,0,24.58,37.2c7.61,10,17.52,25,29.94,30C1037.74,307,1050.57,301.57,1046.51,291.82Z" transform="translate(-315.77 -15.89)"/><path class="cls-1" d="M880.62,236.49c-3-3-9,.07-7.58,4.18,5.43,15.25,11.86,30.2,16.1,45.81,2.14,7.86,4.23,15.75,5.62,23.76,1.31,7.46,2,14.21,6.12,20.8a3.2,3.2,0,0,0,5.33,0c8.62-13.47,4.15-34.58-.06-49C901.23,265.14,893.45,249.25,880.62,236.49Z" transform="translate(-315.77 -15.89)"/><path class="cls-1" d="M960.15,265.53c-10.63-14-16.6-29.59-21.06-46.15-1.81-6.7-13.13-7.07-14.7,0-4.59,20.6,4.36,41.36,16.75,58.09,7.81,10.55,22.65,28.07,38.45,24.19a5.9,5.9,0,0,0,3.73-8.69C977.68,282.75,967.27,274.88,960.15,265.53Z" transform="translate(-315.77 -15.89)"/><path class="cls-1" d="M698.47,970.18a23.26,23.26,0,0,1,3.15,5.17,13.3,13.3,0,0,1,1.29,5.45,7.2,7.2,0,0,1-1.43,4.37,7.73,7.73,0,0,1-4.88,2.65,6,6,0,0,1-3.3-1.14,6.28,6.28,0,0,1-2.44-3.59,15.19,15.19,0,0,1-.57-2.87,7,7,0,0,0-.86-2.72,12.39,12.39,0,0,0-6.45-5.38,24.86,24.86,0,0,0-9.33-1.79,23.63,23.63,0,0,0-5.8.71,17.32,17.32,0,0,0-5,2.08,10.46,10.46,0,0,0-3.45,3.52,9.28,9.28,0,0,0-1.29,4.87,10.17,10.17,0,0,0,1.94,6.39,18.15,18.15,0,0,0,4.81,4.3,33.82,33.82,0,0,0,6.09,3c2.15.81,4.14,1.56,6,2.22q5,2,11,4.74a63.06,63.06,0,0,1,11.12,6.52,38.39,38.39,0,0,1,8.68,8.82,19.78,19.78,0,0,1,3.51,11.62,69.85,69.85,0,0,1-1.29,13.56,26.38,26.38,0,0,1-5.38,11.61,27.5,27.5,0,0,1-11.76,8.11q-7.68,3-20.58,3a29.33,29.33,0,0,1-9.25-1.65,32.5,32.5,0,0,1-9.11-4.73,25.9,25.9,0,0,1-6.88-7.68,20.37,20.37,0,0,1-2.73-10.61,10.59,10.59,0,0,1,.65-3.44,12.89,12.89,0,0,1,1.72-3.37,9.92,9.92,0,0,1,2.58-2.51,5.71,5.71,0,0,1,3.23-1,5.18,5.18,0,0,1,5.45,5.45,3.7,3.7,0,0,1-.51,2.23,18.56,18.56,0,0,0-1.5,2.65,16.55,16.55,0,0,0,2.87,6.09,18.67,18.67,0,0,0,4.73,4.45,24,24,0,0,0,5.81,2.8,20,20,0,0,0,6.24,1q10.32,0,17.07-5.31t6.74-16.2a18.77,18.77,0,0,0-2.23-9.47,23.64,23.64,0,0,0-5.81-6.74,36.38,36.38,0,0,0-8.17-4.88q-4.59-2-9.47-4t-9.89-4.16a40.16,40.16,0,0,1-8.68-5.16,24.43,24.43,0,0,1-6.17-7.25,20.79,20.79,0,0,1-2.36-10.25,20.3,20.3,0,0,1,2.29-9.83,21.85,21.85,0,0,1,6.1-7.1,27.59,27.59,0,0,1,8.82-4.37,36.31,36.31,0,0,1,10.47-1.51,33.42,33.42,0,0,1,8.24.93,30.49,30.49,0,0,1,6.53,2.44,25,25,0,0,1,5.16,3.59A53.8,53.8,0,0,1,698.47,970.18Z" transform="translate(-315.77 -15.89)"/><path class="cls-1" d="M737.92,977a5.35,5.35,0,0,1,3.18-1.1,5.26,5.26,0,0,1,3.52,1.38,6.51,6.51,0,0,1,2,4.15l-.41,16q4.42.14,7.6.27a29.32,29.32,0,0,1,5.25.62,5.74,5.74,0,0,1,3,1.59,5,5,0,0,1,1,3.32,5.37,5.37,0,0,1-1.45,3.59,6.34,6.34,0,0,1-4.36,1.94H745.93c0,1.29,0,2.55-.07,3.8s-.07,2.51-.07,3.8c0,6.07.28,12.16.83,18.23.19,2.4.35,4.63.49,6.71a14.91,14.91,0,0,0,1.31,5.46,8.49,8.49,0,0,0,3.45,3.73q2.36,1.38,7,1.38c1.75,0,2.67-.42,2.76-1.25a23.1,23.1,0,0,0,.14-2.76,29.54,29.54,0,0,0-.27-3.94,27.79,27.79,0,0,1-.28-3.94,5.85,5.85,0,0,1,1.66-4.55,5.35,5.35,0,0,1,3.73-1.53,4.66,4.66,0,0,1,3.32,1.18,7.2,7.2,0,0,1,1.86,3.18,21.23,21.23,0,0,1,.83,4.69q.21,2.7.21,5.88c0,4.61-1.11,8.17-3.32,10.71s-5.57,3.8-10.09,3.8a24,24,0,0,1-6.15-.83,32.77,32.77,0,0,1-5.94-2.21,22.58,22.58,0,0,1-5-3.32,13.16,13.16,0,0,1-3.32-4.28,29.89,29.89,0,0,1-2.28-6.77,73.62,73.62,0,0,1-1.38-8.85q-.48-4.83-.69-10.22c-.14-3.6-.21-7.23-.21-10.92,0-1.19,0-2.35.07-3.45s.07-2.26.07-3.46a43.94,43.94,0,0,0-6.42.42,33.49,33.49,0,0,1-3.94.41,5,5,0,0,1-3.8-1.52,5.19,5.19,0,0,1-1.45-3.73q0-4.27,4.56-5.6a48.91,48.91,0,0,1,11.33-1.58l.69-17.14A7,7,0,0,1,737.92,977Z" transform="translate(-315.77 -15.89)"/><path class="cls-1" d="M782.13,999.89a12.07,12.07,0,0,0-.2-1.86c-.14-.78-.26-1.54-.35-2.28a7.75,7.75,0,0,1-.07-1.73c0-.41.25-.53.62-.35a5.42,5.42,0,0,1,1.52-3.17,5.2,5.2,0,0,1,2.84-1.52,5.38,5.38,0,0,1,3.31.55,6.3,6.3,0,0,1,2.83,3,11.21,11.21,0,0,1,.56,3.59,23.57,23.57,0,0,1,9.46-4.9,21.72,21.72,0,0,1,10-.28,20,20,0,0,1,14.92,13.89,16.14,16.14,0,0,1,1.11,5.11c.09,1.75.14,3.55.14,5.39a6.32,6.32,0,0,1-2.35,4.07,5.21,5.21,0,0,1-3.73,1.11,5.56,5.56,0,0,1-3.46-1.8,6.23,6.23,0,0,1-1.52-4.49q0-6.21-2.62-9.39a8.6,8.6,0,0,0-6.29-3.39,12.15,12.15,0,0,0-7.67,2.63,20.66,20.66,0,0,0-6.63,8.63,15.2,15.2,0,0,0-1.38,4.29q.13,5.25.14,9.53t.13,8.5c.1,2.81.23,5.73.42,8.77s.5,6.5,1,10.37c0,.46,0,.9.06,1.31a10.91,10.91,0,0,1,.07,1.31,6.23,6.23,0,0,1-1.72,3.59,6.11,6.11,0,0,1-2.9,1.59,5,5,0,0,1-3.25-.41,5.66,5.66,0,0,1-2.63-2.56h-.55a6.76,6.76,0,0,0-.07-1,8,8,0,0,1-.07-1.18V1056q-.27-5.1-.83-10t-1-9.6c-.28-3.18-.44-6.33-.49-9.47a47.55,47.55,0,0,1,.76-9.25v-4q0-3.59-.07-7T782.13,999.89Z" transform="translate(-315.77 -15.89)"/><path class="cls-1" d="M869.19,1026.29q-10.92,1-21.84,1.65a18.07,18.07,0,0,0,.69,8,21.53,21.53,0,0,0,3.81,7.11,19.64,19.64,0,0,0,6.21,5.12,15.87,15.87,0,0,0,8.09,1.79,16.63,16.63,0,0,0,4.69-.07,6.13,6.13,0,0,0,2.63-1.1,11.5,11.5,0,0,0,1.66-1.59,10.82,10.82,0,0,1,1.79-1.66,16.52,16.52,0,0,1,1.87-4.9,4.74,4.74,0,0,1,4.49-2.28,5.52,5.52,0,0,1,4.28,1.65,5.36,5.36,0,0,1,1.52,3.73,10.87,10.87,0,0,1-1.72,5.33,23.71,23.71,0,0,1-4.77,5.66,28.38,28.38,0,0,1-7.12,4.56,20.85,20.85,0,0,1-8.77,1.87,35.82,35.82,0,0,1-12-2,25.24,25.24,0,0,1-10.09-6.56,31.65,31.65,0,0,1-6.84-12q-2.49-7.47-2.21-18.38a27.13,27.13,0,0,1,2.62-10.85,33.86,33.86,0,0,1,6.57-9.46,32.9,32.9,0,0,1,9.46-6.71,29.85,29.85,0,0,1,11.47-2.83,26.38,26.38,0,0,1,9.54,1.66,23.42,23.42,0,0,1,7.32,4.42,19.49,19.49,0,0,1,4.7,6.5,19.23,19.23,0,0,1,1.66,7.87,11,11,0,0,1-2,7,13.3,13.3,0,0,1-5,3.94,22.57,22.57,0,0,1-6.43,1.86C873.24,1025.85,871.12,1026.1,869.19,1026.29Zm-4-24.32a19.21,19.21,0,0,0-8.71,2.83,21.85,21.85,0,0,0-5.52,5,22.32,22.32,0,0,0-3.73,7c4.88-.18,9.71-.49,14.5-.9s9.58-1,14.38-1.73a3.67,3.67,0,0,0,1.38-2.76,5.33,5.33,0,0,0-1.32-3.32,16.72,16.72,0,0,0-3.17-3,19.39,19.39,0,0,0-4-2.28A10.19,10.19,0,0,0,865.18,1002Z" transform="translate(-315.77 -15.89)"/><path class="cls-1" d="M930.26,1026.29q-10.92,1-21.83,1.65a17.93,17.93,0,0,0,.69,8,21.5,21.5,0,0,0,3.8,7.11,19.57,19.57,0,0,0,6.22,5.12,15.83,15.83,0,0,0,8.08,1.79,16.72,16.72,0,0,0,4.7-.07,6.09,6.09,0,0,0,2.62-1.1,11,11,0,0,0,1.66-1.59,10.52,10.52,0,0,1,1.8-1.66,16.5,16.5,0,0,1,1.86-4.9,4.75,4.75,0,0,1,4.49-2.28,5.55,5.55,0,0,1,4.29,1.65,5.41,5.41,0,0,1,1.52,3.73,10.9,10.9,0,0,1-1.73,5.33,23.25,23.25,0,0,1-4.77,5.66,28.32,28.32,0,0,1-7.11,4.56,20.93,20.93,0,0,1-8.78,1.87,35.87,35.87,0,0,1-11.95-2,25.31,25.31,0,0,1-10.09-6.56,31.65,31.65,0,0,1-6.84-12q-2.49-7.47-2.21-18.38a27,27,0,0,1,2.63-10.85,33.83,33.83,0,0,1,6.56-9.46,32.94,32.94,0,0,1,9.47-6.71,29.76,29.76,0,0,1,11.46-2.83,26.34,26.34,0,0,1,9.54,1.66,23.3,23.3,0,0,1,7.32,4.42,19.35,19.35,0,0,1,6.36,14.37,11.06,11.06,0,0,1-2,7,13.41,13.41,0,0,1-5,3.94,22.5,22.5,0,0,1-6.42,1.86C934.31,1025.85,932.19,1026.1,930.26,1026.29Zm-4-24.32a19.12,19.12,0,0,0-8.7,2.83,21.74,21.74,0,0,0-5.53,5,22.53,22.53,0,0,0-3.73,7c4.88-.18,9.72-.49,14.51-.9s9.58-1,14.37-1.73a3.67,3.67,0,0,0,1.38-2.76,5.38,5.38,0,0,0-1.31-3.32,17.09,17.09,0,0,0-3.18-3,19.13,19.13,0,0,0-4-2.28A10.15,10.15,0,0,0,926.25,1002Z" transform="translate(-315.77 -15.89)"/><path class="cls-1" d="M976.13,977a5.4,5.4,0,0,1,3.18-1.1,5.28,5.28,0,0,1,3.53,1.38,6.61,6.61,0,0,1,2,4.15l-.41,16c2.94.09,5.48.18,7.6.27a29.55,29.55,0,0,1,5.25.62,5.74,5.74,0,0,1,3,1.59,5,5,0,0,1,1,3.32,5.32,5.32,0,0,1-1.45,3.59,6.32,6.32,0,0,1-4.35,1.94H984.15c0,1.29,0,2.55-.07,3.8s-.07,2.51-.07,3.8c0,6.07.28,12.16.83,18.23.18,2.4.35,4.63.48,6.71a15.11,15.11,0,0,0,1.32,5.46,8.38,8.38,0,0,0,3.45,3.73q2.35,1.38,7,1.38c1.75,0,2.67-.42,2.76-1.25a25.4,25.4,0,0,0,.14-2.76,28,28,0,0,0-.28-3.94,29.32,29.32,0,0,1-.27-3.94,5.85,5.85,0,0,1,1.66-4.55,5.34,5.34,0,0,1,3.73-1.53,4.64,4.64,0,0,1,3.31,1.18,7.22,7.22,0,0,1,1.87,3.18,21.83,21.83,0,0,1,.83,4.69c.14,1.8.2,3.76.2,5.88,0,4.61-1.1,8.17-3.31,10.71s-5.58,3.8-10.09,3.8a23.88,23.88,0,0,1-6.15-.83,32.77,32.77,0,0,1-5.94-2.21,22.88,22.88,0,0,1-5.05-3.32,13.27,13.27,0,0,1-3.31-4.28,29.89,29.89,0,0,1-2.28-6.77,73.62,73.62,0,0,1-1.38-8.85c-.33-3.22-.55-6.63-.69-10.22s-.21-7.23-.21-10.92c0-1.19,0-2.35.07-3.45s.07-2.26.07-3.46a44.18,44.18,0,0,0-6.43.42,33.29,33.29,0,0,1-3.94.41,5,5,0,0,1-3.8-1.52,5.23,5.23,0,0,1-1.45-3.73q0-4.27,4.56-5.6a49,49,0,0,1,11.34-1.58l.69-17.14A7,7,0,0,1,976.13,977Z" transform="translate(-315.77 -15.89)"/><path class="cls-1" d="M1088.68,1015.44a5.53,5.53,0,0,1-1.17-3.32,5.32,5.32,0,0,1,1.24-3.32,6.31,6.31,0,0,1,3.73-2.14h12.16v-4.56a145.44,145.44,0,0,1,.76-15.34,37.79,37.79,0,0,1,4.63-14.23,18,18,0,0,1,6.56-7.32,15,15,0,0,1,7.88-2.14,19.07,19.07,0,0,1,8.15,2.07,24.11,24.11,0,0,1,7.19,5.39,28.16,28.16,0,0,1,5,7.81,22.84,22.84,0,0,1,1.94,9.25,5.54,5.54,0,0,1,.48,3,5.31,5.31,0,0,1-1.17,2.7,5.7,5.7,0,0,1-2.63,1.73,5.8,5.8,0,0,1-3.73-.14,5.61,5.61,0,0,1-3.66-4.36,23.22,23.22,0,0,1-.21-6l-1.11-2.21a41.08,41.08,0,0,0-2.76-4.7,8.3,8.3,0,0,0-9.4-2.55,7,7,0,0,0-2.69,2.62,18.45,18.45,0,0,0-1.73,3.94,19.77,19.77,0,0,1-1.93,4.29c-.46,3-.79,6.31-1,9.81s-.23,7.14-.14,10.91h10.64a6,6,0,0,1,4.29,2,5.77,5.77,0,0,1,1.38,3.66,5.37,5.37,0,0,1-1.45,3.59,5.86,5.86,0,0,1-4.36,1.8h-10.08q.27,6.36.55,12.23c.18,3.91.28,7.48.28,10.71,0,1.93,0,3.68.07,5.25s.06,3.08.06,4.56-.06,3-.2,4.49-.35,3.11-.62,4.76a6.38,6.38,0,0,1-2.35,4.08,5.28,5.28,0,0,1-3.74,1.11,5.51,5.51,0,0,1-3.45-1.8,6.26,6.26,0,0,1-1.52-4.49,48.1,48.1,0,0,0,1-10.92c-.09-3.68-.19-7.32-.28-10.91l-.55-19.07h-12.44A6.51,6.51,0,0,1,1088.68,1015.44Z" transform="translate(-315.77 -15.89)"/><path class="cls-1" d="M1174.28,992.85a62.06,62.06,0,0,1,13.06,1,21,21,0,0,1,9.4,4.22,18.44,18.44,0,0,1,5.66,8.49,42.86,42.86,0,0,1,1.87,13.82q0,3.74-.42,8.22a50.66,50.66,0,0,1-1.65,9,41.69,41.69,0,0,1-3.53,8.7,26.52,26.52,0,0,1-6,7.46,28.32,28.32,0,0,1-9.05,5.19,37,37,0,0,1-12.64,1.93q-9,0-14.65-3.87a28.29,28.29,0,0,1-8.91-9.67,39.15,39.15,0,0,1-4.42-12.65,75.75,75.75,0,0,1-1.18-12.92,24.42,24.42,0,0,1,3.18-12.15,34.75,34.75,0,0,1,7.94-9.68,32.22,32.22,0,0,1,10.51-5.94A22.3,22.3,0,0,1,1174.28,992.85Zm-1.52,10.77a24.78,24.78,0,0,0-9.94,2.35,18.38,18.38,0,0,0-6.64,5.39,18.86,18.86,0,0,0-3.38,7.6,26.9,26.9,0,0,0-.35,8.84,21.16,21.16,0,0,0,3.87,9.88,29.93,29.93,0,0,0,8,7.88,23.58,23.58,0,0,0,9.74,3.87,13.29,13.29,0,0,0,9.53-2.14,14.46,14.46,0,0,0,4-4.49,34.8,34.8,0,0,0,3-6.57,48.85,48.85,0,0,0,1.93-7.46,41.05,41.05,0,0,0,.69-7.18q0-6.23-1.93-9.88a14.11,14.11,0,0,0-4.91-5.53,15.69,15.69,0,0,0-6.63-2.28A45.11,45.11,0,0,0,1172.76,1003.62Z" transform="translate(-315.77 -15.89)"/><path class="cls-1" d="M1246.55,992.85a62.06,62.06,0,0,1,13.06,1A21,21,0,0,1,1269,998a18.44,18.44,0,0,1,5.66,8.49,42.86,42.86,0,0,1,1.87,13.82q0,3.74-.42,8.22a51.58,51.58,0,0,1-1.65,9,42.24,42.24,0,0,1-3.53,8.7,26.52,26.52,0,0,1-6,7.46,28.43,28.43,0,0,1-9,5.19,37,37,0,0,1-12.64,1.93q-9,0-14.65-3.87a28.29,28.29,0,0,1-8.91-9.67,39.41,39.41,0,0,1-4.43-12.65,76.72,76.72,0,0,1-1.17-12.92,24.42,24.42,0,0,1,3.18-12.15,34.58,34.58,0,0,1,7.94-9.68,32.22,32.22,0,0,1,10.51-5.94A22.3,22.3,0,0,1,1246.55,992.85Zm-1.52,10.77a24.88,24.88,0,0,0-10,2.35,18.43,18.43,0,0,0-6.63,5.39,19,19,0,0,0-3.39,7.6,26.9,26.9,0,0,0-.34,8.84,21.16,21.16,0,0,0,3.87,9.88,30,30,0,0,0,7.94,7.88,23.68,23.68,0,0,0,9.75,3.87,13.29,13.29,0,0,0,9.53-2.14,14.46,14.46,0,0,0,4-4.49,34.8,34.8,0,0,0,3-6.57,48.85,48.85,0,0,0,1.93-7.46,41.05,41.05,0,0,0,.69-7.18q0-6.23-1.93-9.88a14.11,14.11,0,0,0-4.91-5.53,15.69,15.69,0,0,0-6.63-2.28A45.16,45.16,0,0,0,1245,1003.62Z" transform="translate(-315.77 -15.89)"/><path class="cls-1" d="M1346.18,965.07a8.42,8.42,0,0,1,1.52,3.87,34.53,34.53,0,0,1,.41,5.53c0,1.56-.07,3.17-.2,4.83s-.28,3.23-.42,4.7-.3,2.83-.48,4.08a20.22,20.22,0,0,0-.28,2.83q-.42,7.74-.83,15.34t-.41,15.34a12.81,12.81,0,0,1,.69,2.62,8.94,8.94,0,0,1-.69,3.46q0,8.7.83,17.41.27,2.76.34,5.73a26.46,26.46,0,0,0,.76,5.74c.09.37.16.71.21,1a9.72,9.72,0,0,1,.07,1.18.53.53,0,0,0-.14.41,6.31,6.31,0,0,1-2.21,3.46,5.38,5.38,0,0,1-3.18,1.1,5.12,5.12,0,0,1-4.42-2.42,13.55,13.55,0,0,1-1.94-6.84,12.88,12.88,0,0,1-7.32,3q-2.49,1.93-4.21,3.11a17.69,17.69,0,0,1-3.32,1.8,13.69,13.69,0,0,1-3.32.83,32.82,32.82,0,0,1-3.93.21,22.29,22.29,0,0,1-11.54-3,28.88,28.88,0,0,1-8.5-7.53,32.42,32.42,0,0,1-5.18-10.22,37.87,37.87,0,0,1-1.73-11.06,36.75,36.75,0,0,1,1.66-10.91,33,33,0,0,1,3.66-7.53,53.78,53.78,0,0,1,6.36-8.29,44.24,44.24,0,0,1,7.8-6.71,14.54,14.54,0,0,1,8-2.76,23.63,23.63,0,0,1,11,2.9,42,42,0,0,1,9.68,6.91l.41-8q.27-5.81.9-11.61a110.13,110.13,0,0,0,.62-11.61,11.41,11.41,0,0,0-.48-3.45,9,9,0,0,1-.49-2.77,5.1,5.1,0,0,1,1.59-3.86,5.29,5.29,0,0,1,3.8-1.52A6.33,6.33,0,0,1,1346.18,965.07Zm-11.75,58.31a20.81,20.81,0,0,0-3-5,41.74,41.74,0,0,0-4.9-5.39,34.18,34.18,0,0,0-5.67-4.28,10.49,10.49,0,0,0-5.25-1.73,9.88,9.88,0,0,0-5.67,2.21,28.49,28.49,0,0,0-5.73,5.73,35.3,35.3,0,0,0-4.49,7.81,22,22,0,0,0-1.8,8.57,28.53,28.53,0,0,0,1,7.53,23.45,23.45,0,0,0,3,6.84,16.53,16.53,0,0,0,4.91,4.91,12.26,12.26,0,0,0,6.77,1.86,19.71,19.71,0,0,0,4.56-.69,28,28,0,0,0,8.63-2.28,11.62,11.62,0,0,0,4.91-4.28,16.48,16.48,0,0,0,2.14-6.57,75.22,75.22,0,0,0,.48-9.12Z" transform="translate(-315.77 -15.89)"/><circle class="cls-1" cx="1076.52" cy="1009.62" r="12.78"/><circle class="cls-1" cx="278.87" cy="1009.62" r="12.78"/></svg>